<svg xmlns="http://www.w3.org/2000/svg" viewBox="0 0 256 256" role="img" aria-labelledby="title desc">
  <title>SmartChefAI Logo</title>
  <desc>Leaf flame monogram for SmartChefAI</desc>
  <defs>
    <linearGradient id="bg" x1="0%" x2="100%" y1="0%" y2="100%">
      <stop offset="0%" stop-color="#22c55e" />
      <stop offset="100%" stop-color="#38bdf8" />
    </linearGradient>
    <linearGradient id="steam" x1="0%" x2="100%" y1="0%" y2="100%">
      <stop offset="0%" stop-color="#f8fafc" stop-opacity="0.95" />
      <stop offset="100%" stop-color="#d1fae5" stop-opacity="0.92" />
    </linearGradient>
  </defs>
  <rect width="256" height="256" rx="56" fill="#0f172a" />
  <rect x="18" y="18" width="220" height="220" rx="46" fill="url(#bg)" opacity="0.12" />
  <path d="M64 158c0-26 21-47 47-47h34c26 0 47 21 47 47v6H64v-6z" fill="url(#bg)" />
  <path d="M90 154c10-9 22-13 38-13s28 4 38 13" fill="none" stroke="#e2e8f0" stroke-linecap="round" stroke-width="10" opacity="0.85"/>
  <path d="M128 60c-18 18-25 33-25 49 0 19 13 31 25 31s25-12 25-31c0-16-8-31-25-49z" fill="url(#steam)"/>
  <path d="M111 69c-9 11-13 21-13 31 0 10 5 18 13 23" fill="none" stroke="#f8fafc" stroke-linecap="round" stroke-width="8" opacity="0.75"/>
  <path d="M145 71c8 11 12 20 12 30 0 10-5 18-12 22" fill="none" stroke="#d1fae5" stroke-linecap="round" stroke-width="8" opacity="0.75"/>
  <circle cx="128" cy="176" r="10" fill="#0f172a" opacity="0.85"/>
</svg>
